<svg xmlns="http://www.w3.org/2000/svg" width="16" height="17" viewBox="0 0 16 17" fill="none">
  <path d="M10.6399 14L5.6287 14C2.51314 14 1.24627 11.9857 2.79467 9.52571L3.4891 8.42857C3.65801 8.16286 3.96769 8 4.30552 8L11.963 8C12.3009 8 12.6105 8.16286 12.7795 8.42857L13.4739 9.52571C15.0223 11.9857 13.7554 14 10.6399 14Z" fill="#40BF6A"/>
  <path opacity="0.6" d="M10.7258 7L5.53923 7C5.22465 7 5.03106 6.58026 5.19238 6.25047L5.70862 5.15116C7.03956 2.28295 9.23357 2.28295 10.5645 5.15116L11.0807 6.25047C11.234 6.58026 11.0404 7 10.7258 7Z" fill="#40BF6A"/>
</svg>