<svg xmlns="http://www.w3.org/2000/svg" width="540" height="258" viewBox="0 0 540 258" fill="none">
  <path d="M-3.77438 208.053L-7 203.59V268H547V29.5624H543.774L540.952 16.7335L537.726 10.0401L534.501 11.7134H530.872L523.614 6.1356L513.937 18.4068L507.889 10.5979L504.261 11.1556L497.809 0L494.987 12.2712L490.552 20.0801L487.729 18.4068L484.1 19.5224L480.875 15.6179L477.649 21.7535L473.214 16.7335L468.376 16.1757L461.521 20.6379L458.699 21.1957L454.263 17.849L447.409 25.1002L440.151 40.1603L434.91 40.7181L431.684 41.8336L428.862 40.1603L424.83 40.7181L422.007 64.7027L417.975 66.9338L414.75 65.2605L411.927 73.6272L405.073 81.4362L399.428 66.376L395.396 61.9138L392.17 67.4916L388.945 64.1449L382.493 70.8383L378.461 83.6673H375.639L372.01 86.4562L368.381 84.7828L365.559 78.6472L362.333 81.4362L359.108 90.3607L355.479 84.7828L352.656 85.3406L349.834 92.034L346.205 90.9184L342.173 78.0895L338.948 128.29L335.722 122.712L332.496 126.616L329.271 121.596L326.045 132.752H322.82L319.594 122.154L316.368 119.365L313.143 113.23L305.885 109.883L301.047 112.114L296.208 110.999L292.983 116.576L289.757 111.556L286.531 113.23L283.306 112.114L276.854 118.25L272.822 115.461L266.371 116.576L263.146 111.556L259.92 117.134L256.694 116.019L253.469 125.501L250.243 107.652L247.017 110.999L243.792 105.421L237.341 109.325L234.115 124.943L226.857 126.059L220.406 114.345L217.18 119.923L213.552 114.345L210.326 117.134L207.504 123.828L203.875 124.943L198.23 114.903L193.795 116.019L190.569 108.767H187.344L184.118 114.903H181.296L177.667 123.27L174.441 112.114L171.215 112.672L167.99 96.4963L164.764 90.9184L161.539 69.7227L154.281 61.9138L151.055 63.0294L147.83 57.4515L141.378 66.9338L138.556 63.5871H134.927L131.702 72.5117L128.476 63.5871L125.25 68.0494L122.025 76.9739L117.993 70.2805L114.767 69.165L111.541 74.185L108.316 72.5117L105.09 74.7428L101.865 182.395L98.639 170.681L95.4134 174.586L88.9622 170.123L85.7365 157.294C84.2581 155.249 78.0757 147.812 78.0757 147.812L68.802 173.47L65.5764 145.023L62.3508 141.677L59.5284 142.234L52.6739 151.717L49.4483 152.832L45.8195 157.852L42.1907 158.968L38.9651 158.41L36.1427 159.526L32.5138 158.968L29.2882 150.601H26.4658L22.837 202.475L19.6114 200.801H16.3857L13.1601 196.897L9.12809 199.128L5.90247 203.59L-0.548763 204.148L-3.77438 208.053Z" fill="url(#paint0_linear_12_8068)" stroke="#FF5E1A"/>
  <defs>
    <linearGradient id="paint0_linear_12_8068" x1="270" y1="0" x2="270" y2="268" gradientUnits="userSpaceOnUse">
      <stop stop-color="#FF5E1A" stop-opacity="0.6"/>
      <stop offset="0.961135" stop-color="#FF5E1A" stop-opacity="0"/>
    </linearGradient>
  </defs>
</svg>