<svg width="53" height="59" viewBox="0 0 53 59" fill="none" xmlns="http://www.w3.org/2000/svg">
<path id="Vector" d="M46.8276 35.7622C44.8058 34.5948 42.5294 34.2566 40.2747 34.1778C38.3824 34.1118 35.5597 32.8995 35.5597 29.4578C35.5597 26.8936 37.6385 24.83 40.2755 24.7378C42.5302 24.6591 44.8063 24.3203 46.8276 23.1534C48.643 22.1053 50.1505 20.5978 51.1986 18.7823C52.2468 16.9669 52.7985 14.9076 52.7985 12.8113C52.7985 10.715 52.2467 8.65569 51.1985 6.84029C50.1503 5.02488 48.6428 3.51737 46.8273 2.46928C45.0119 1.42119 42.9525 0.869445 40.8563 0.869507C38.76 0.869569 36.7007 1.42143 34.8853 2.46963C33.0699 3.51783 31.5624 5.02543 30.5144 6.8409C29.4663 8.65636 28.9146 10.7157 28.9147 12.812C28.9147 15.1258 29.7376 17.2548 30.7876 19.2298C31.6707 20.8907 32.1175 23.9734 29.0888 25.7219C26.8357 27.0229 24.0238 26.1991 22.6192 23.9514C21.4327 22.0527 20.0004 20.2738 17.9953 19.1158C16.18 18.0678 14.1207 17.516 12.0245 17.516C9.92836 17.5161 7.86911 18.0678 6.05377 19.1159C4.23842 20.1641 2.73095 21.6715 1.68287 23.4869C0.63478 25.3022 0.0830078 27.3615 0.0830078 29.4577C0.0830078 31.5539 0.63478 33.6131 1.68287 35.4285C2.73095 37.2438 4.23842 38.7513 6.05377 39.7994C7.86911 40.8475 9.92836 41.3993 12.0245 41.3993C14.1207 41.3994 16.18 40.8476 17.9953 39.7995C19.9999 38.6421 21.4322 36.8643 22.6178 34.9669C23.5915 33.4086 26.0233 31.4229 29.0885 33.194C31.3384 34.4938 32.0337 37.3417 30.7865 39.6875C29.7368 41.662 28.915 43.7907 28.915 46.1039C28.9149 48.2001 29.4667 50.2594 30.5148 52.0748C31.5629 53.8902 33.0704 55.3977 34.8857 56.4458C36.7011 57.4939 38.7604 58.0457 40.8566 58.0457C42.9528 58.0457 45.0121 57.4939 46.8274 56.4458C48.6428 55.3977 50.1503 53.8902 51.1984 52.0749C52.2465 50.2595 52.7983 48.2002 52.7982 46.104C52.7982 44.0078 52.2464 41.9485 51.1983 40.1331C50.1502 38.3178 48.6427 36.8103 46.8273 35.7622H46.8276Z" fill="#7B29E6"/>
</svg>
